<mxfile host="65bd71144e" scale="20" border="10">
    <diagram id="OpQtIN1epnmquV35bNKl" name="Page-1">
        <mxGraphModel dx="866" dy="393" grid="0" gridSize="10" guides="1" tooltips="1" connect="1" arrows="1" fold="1" page="1" pageScale="1" pageWidth="413" pageHeight="291" background="#ffffff" math="0" shadow="0">
            <root>
                <mxCell id="0"/>
                <mxCell id="1" parent="0"/>
                <mxCell id="116" value="" style="rounded=1;whiteSpace=wrap;html=1;labelBackgroundColor=#FFFFFF;fontSize=5;fontColor=#000000;fillColor=none;strokeColor=#000000;" parent="1" vertex="1">
                    <mxGeometry x="-102" y="10" width="542" height="262" as="geometry"/>
                </mxCell>
                <mxCell id="53" value="" style="edgeStyle=none;html=1;strokeColor=#808080;strokeWidth=1;fontSize=6;fontColor=#000000;startArrow=none;startFill=0;endArrow=none;endFill=0;targetPerimeterSpacing=0;" parent="1" source="5" target="52" edge="1">
                    <mxGeometry relative="1" as="geometry"/>
                </mxCell>
                <mxCell id="5" value="" style="html=1;strokeColor=none;fillColor=#808080;labelPosition=center;verticalLabelPosition=middle;verticalAlign=top;align=center;fontSize=12;outlineConnect=0;spacingTop=-6;fontColor=#FFFFFF;sketch=0;shape=mxgraph.sitemap.login;" parent="1" vertex="1">
                    <mxGeometry x="-0.25" y="113" width="46" height="40" as="geometry"/>
                </mxCell>
                <mxCell id="6" value="" style="aspect=fixed;html=1;points=[];align=center;image;fontSize=12;image=img/lib/azure2/general/Dashboard.svg;strokeColor=#171717;fillColor=#FFFFFF;imageBackground=none;fillStyle=auto;" parent="1" vertex="1">
                    <mxGeometry x="76.75" y="113" width="55.25" height="39" as="geometry"/>
                </mxCell>
                <mxCell id="7" value="" style="sketch=0;pointerEvents=1;shadow=0;dashed=0;html=1;strokeColor=none;fillColor=#505050;labelPosition=center;verticalLabelPosition=bottom;verticalAlign=top;outlineConnect=0;align=center;shape=mxgraph.office.concepts.upload;" parent="1" vertex="1">
                    <mxGeometry x="163.05" y="76" width="23" height="25" as="geometry"/>
                </mxCell>
                <mxCell id="8" value="" style="sketch=0;aspect=fixed;html=1;points=[];align=center;image;fontSize=12;image=img/lib/mscae/Managed_Databases.svg;strokeColor=#171717;fillColor=#FFFFFF;" parent="1" vertex="1">
                    <mxGeometry x="380.75" y="102.68" width="47" height="50" as="geometry"/>
                </mxCell>
                <mxCell id="28" value="" style="edgeStyle=none;html=1;strokeColor=#808080;strokeWidth=1;fontSize=7;fontColor=#000000;endArrow=blockThin;endFill=0;startArrow=blockThin;startFill=0;targetPerimeterSpacing=0;entryX=-0.004;entryY=0.573;entryDx=0;entryDy=0;entryPerimeter=0;" parent="1" source="13" target="8" edge="1">
                    <mxGeometry relative="1" as="geometry">
                        <mxPoint x="342.75" y="132" as="targetPoint"/>
                    </mxGeometry>
                </mxCell>
                <mxCell id="13" value="&lt;p style=&quot;line-height: 120%; font-size: 7px;&quot;&gt;&lt;font style=&quot;font-size: 7px;&quot; color=&quot;#000000&quot;&gt;AES &amp;amp;&lt;br&gt;DES Module&lt;/font&gt;&lt;/p&gt;" style="rounded=1;whiteSpace=wrap;html=1;strokeColor=#171717;fillColor=#FFFFFF;" parent="1" vertex="1">
                    <mxGeometry x="229.75" y="116" width="73" height="31" as="geometry"/>
                </mxCell>
                <mxCell id="14" value="" style="strokeColor=#999999;verticalLabelPosition=bottom;shadow=0;dashed=0;verticalAlign=top;strokeWidth=2;html=1;shape=mxgraph.mockup.misc.shareIcon;labelBackgroundColor=#FFFFFF;fontSize=7;fontColor=#000000;fillColor=#FFFFFF;" parent="1" vertex="1">
                    <mxGeometry x="164.25" y="165" width="27.5" height="24" as="geometry"/>
                </mxCell>
                <mxCell id="15" value="" style="html=1;verticalLabelPosition=bottom;align=center;labelBackgroundColor=#ffffff;verticalAlign=top;strokeWidth=2;strokeColor=#56517e;shadow=0;dashed=0;shape=mxgraph.ios7.icons.trashcan;fontSize=7;fillColor=#FFFFFF;" parent="1" vertex="1">
                    <mxGeometry x="168" y="206" width="20" height="17" as="geometry"/>
                </mxCell>
                <mxCell id="23" value="" style="edgeStyle=none;html=1;strokeColor=#808080;strokeWidth=1;fontSize=7;fontColor=#000000;endArrow=blockThin;endFill=0;entryX=0;entryY=0.5;entryDx=0;entryDy=0;exitX=0.867;exitY=0.457;exitDx=0;exitDy=0;exitPerimeter=0;" parent="1" source="16" target="13" edge="1">
                    <mxGeometry relative="1" as="geometry"/>
                </mxCell>
                <mxCell id="16" value="" style="sketch=0;pointerEvents=1;shadow=0;dashed=0;html=1;strokeColor=none;fillColor=#505050;labelPosition=center;verticalLabelPosition=bottom;verticalAlign=top;outlineConnect=0;align=center;shape=mxgraph.office.concepts.download;labelBackgroundColor=#FFFFFF;fontSize=7;fontColor=#000000;" parent="1" vertex="1">
                    <mxGeometry x="168.25" y="119" width="23.5" height="28" as="geometry"/>
                </mxCell>
                <mxCell id="27" value="" style="edgeStyle=none;html=1;strokeColor=#808080;strokeWidth=1;fontSize=7;fontColor=#000000;endArrow=blockThin;endFill=0;dashed=1;dashPattern=1 1;exitX=0.5;exitY=0;exitDx=0;exitDy=0;entryX=0.914;entryY=0.996;entryDx=0;entryDy=0;entryPerimeter=0;startArrow=blockThin;startFill=0;" parent="1" source="18" target="13" edge="1">
                    <mxGeometry relative="1" as="geometry">
                        <mxPoint x="296.75" y="149" as="targetPoint"/>
                        <Array as="points">
                            <mxPoint x="314.75" y="158"/>
                        </Array>
                    </mxGeometry>
                </mxCell>
                <mxCell id="100" value="" style="edgeStyle=none;html=1;dashed=1;dashPattern=1 1;strokeColor=#808080;fontSize=4;startArrow=none;startFill=0;endArrow=openThin;endFill=0;" parent="1" source="18" edge="1">
                    <mxGeometry relative="1" as="geometry">
                        <mxPoint x="354.75" y="177.91742307692306" as="targetPoint"/>
                    </mxGeometry>
                </mxCell>
                <mxCell id="18" value="&lt;font style=&quot;font-size: 6px;&quot;&gt;Multiparty&lt;br&gt;Encryption&lt;br&gt;Module&lt;/font&gt;" style="rounded=1;whiteSpace=wrap;html=1;labelBackgroundColor=#FFFFFF;strokeColor=#171717;fontSize=7;fontColor=#000000;fillColor=#FFFFFF;" parent="1" vertex="1">
                    <mxGeometry x="276.75" y="162.87" width="45" height="29.13" as="geometry"/>
                </mxCell>
                <mxCell id="19" value="" style="endArrow=openThin;html=1;fontSize=7;fontColor=#000000;exitX=1;exitY=0.5;exitDx=0;exitDy=0;exitPerimeter=0;entryX=0.011;entryY=0.494;entryDx=0;entryDy=0;entryPerimeter=0;strokeColor=#808080;endFill=0;strokeWidth=1;" parent="1" source="5" target="6" edge="1">
                    <mxGeometry width="50" height="50" relative="1" as="geometry">
                        <mxPoint x="138.75" y="171" as="sourcePoint"/>
                        <mxPoint x="188.75" y="121" as="targetPoint"/>
                    </mxGeometry>
                </mxCell>
                <mxCell id="20" value="" style="endArrow=none;html=1;strokeColor=#808080;strokeWidth=1;fontSize=7;fontColor=#000000;endFill=0;" parent="1" target="7" edge="1">
                    <mxGeometry width="50" height="50" relative="1" as="geometry">
                        <mxPoint x="103.75" y="113" as="sourcePoint"/>
                        <mxPoint x="139.75" y="62" as="targetPoint"/>
                        <Array as="points">
                            <mxPoint x="103.75" y="89"/>
                        </Array>
                    </mxGeometry>
                </mxCell>
                <mxCell id="21" value="" style="endArrow=none;html=1;strokeColor=#808080;strokeWidth=1;fontSize=7;fontColor=#000000;startArrow=blockThin;startFill=0;" parent="1" source="6" target="16" edge="1">
                    <mxGeometry width="50" height="50" relative="1" as="geometry">
                        <mxPoint x="138.75" y="171" as="sourcePoint"/>
                        <mxPoint x="166.75" y="121" as="targetPoint"/>
                    </mxGeometry>
                </mxCell>
                <mxCell id="22" value="" style="endArrow=none;html=1;strokeColor=#808080;strokeWidth=1;fontSize=7;fontColor=#000000;endFill=0;entryX=0.016;entryY=0.581;entryDx=0;entryDy=0;entryPerimeter=0;" parent="1" target="14" edge="1">
                    <mxGeometry width="50" height="50" relative="1" as="geometry">
                        <mxPoint x="103.75" y="152" as="sourcePoint"/>
                        <mxPoint x="164.75" y="185.5793103448276" as="targetPoint"/>
                        <Array as="points">
                            <mxPoint x="103.75" y="178"/>
                        </Array>
                    </mxGeometry>
                </mxCell>
                <mxCell id="24" value="" style="endArrow=classic;html=1;strokeColor=#808080;strokeWidth=1;fontSize=7;fontColor=#000000;entryX=0.5;entryY=0;entryDx=0;entryDy=0;" parent="1" source="7" target="13" edge="1">
                    <mxGeometry width="50" height="50" relative="1" as="geometry">
                        <mxPoint x="233.75" y="112" as="sourcePoint"/>
                        <mxPoint x="283.75" y="62" as="targetPoint"/>
                        <Array as="points">
                            <mxPoint x="266.75" y="89"/>
                        </Array>
                    </mxGeometry>
                </mxCell>
                <mxCell id="25" value="" style="edgeStyle=none;html=1;strokeColor=#808080;strokeWidth=1;fontSize=7;fontColor=#000000;endArrow=classicThin;endFill=0;exitX=0.987;exitY=0.533;exitDx=0;exitDy=0;exitPerimeter=0;" parent="1" source="14" edge="1">
                    <mxGeometry relative="1" as="geometry">
                        <mxPoint x="199.7545" y="176.45600000000005" as="sourcePoint"/>
                        <mxPoint x="230.75" y="178" as="targetPoint"/>
                    </mxGeometry>
                </mxCell>
                <mxCell id="26" value="" style="endArrow=none;html=1;strokeColor=#808080;strokeWidth=1;fontSize=7;fontColor=#000000;entryX=0.022;entryY=0.5;entryDx=0;entryDy=0;entryPerimeter=0;" parent="1" source="95" target="18" edge="1">
                    <mxGeometry width="50" height="50" relative="1" as="geometry">
                        <mxPoint x="257.38200000000006" y="178.59755" as="sourcePoint"/>
                        <mxPoint x="317.75" y="203" as="targetPoint"/>
                    </mxGeometry>
                </mxCell>
                <mxCell id="29" value="" style="endArrow=none;html=1;strokeColor=#808080;strokeWidth=1;fontSize=7;fontColor=#000000;entryX=0.494;entryY=1.013;entryDx=0;entryDy=0;entryPerimeter=0;exitX=-0.049;exitY=0.504;exitDx=0;exitDy=0;exitPerimeter=0;" parent="1" source="15" target="6" edge="1">
                    <mxGeometry width="50" height="50" relative="1" as="geometry">
                        <mxPoint x="32.75" y="201" as="sourcePoint"/>
                        <mxPoint x="82.75" y="151" as="targetPoint"/>
                        <Array as="points">
                            <mxPoint x="103.75" y="215"/>
                        </Array>
                    </mxGeometry>
                </mxCell>
                <mxCell id="30" value="" style="endArrow=blockThin;html=1;strokeColor=#808080;strokeWidth=1;fontSize=7;fontColor=#000000;exitX=0.986;exitY=0.693;exitDx=0;exitDy=0;exitPerimeter=0;entryX=0.5;entryY=1;entryDx=0;entryDy=0;endFill=1;" parent="1" source="15" target="41" edge="1">
                    <mxGeometry width="50" height="50" relative="1" as="geometry">
                        <mxPoint x="257.75" y="254" as="sourcePoint"/>
                        <mxPoint x="307.75" y="204" as="targetPoint"/>
                        <Array as="points">
                            <mxPoint x="404.75" y="218"/>
                        </Array>
                    </mxGeometry>
                </mxCell>
                <mxCell id="32" value="User Login" style="text;html=1;strokeColor=none;fillColor=none;align=center;verticalAlign=middle;whiteSpace=wrap;rounded=0;labelBackgroundColor=#FFFFFF;fillStyle=auto;fontSize=7;fontColor=#000000;" parent="1" vertex="1">
                    <mxGeometry x="3.25" y="150.35" width="39" height="20" as="geometry"/>
                </mxCell>
                <mxCell id="33" value="&lt;font style=&quot;font-size: 9px;&quot;&gt;Fig.1 - User System Architecture&lt;/font&gt;" style="text;strokeColor=none;fillColor=none;html=1;fontSize=24;fontStyle=1;verticalAlign=middle;align=center;labelBackgroundColor=#FFFFFF;fillStyle=auto;fontColor=#000000;" parent="1" vertex="1">
                    <mxGeometry x="126" y="234" width="86" height="33" as="geometry"/>
                </mxCell>
                <mxCell id="34" value="Dashboard" style="text;html=1;strokeColor=none;fillColor=none;align=center;verticalAlign=middle;whiteSpace=wrap;rounded=0;labelBackgroundColor=#FFFFFF;fillStyle=auto;fontSize=7;fontColor=#000000;" parent="1" vertex="1">
                    <mxGeometry x="84.88" y="152" width="39" height="20" as="geometry"/>
                </mxCell>
                <mxCell id="37" value="Upload Operation" style="text;html=1;strokeColor=none;fillColor=none;align=center;verticalAlign=middle;whiteSpace=wrap;rounded=0;labelBackgroundColor=#FFFFFF;fillStyle=auto;fontSize=7;fontColor=#000000;" parent="1" vertex="1">
                    <mxGeometry x="146.43" y="96" width="59.75" height="20" as="geometry"/>
                </mxCell>
                <mxCell id="38" value="Download Operation" style="text;html=1;strokeColor=none;fillColor=none;align=center;verticalAlign=middle;whiteSpace=wrap;rounded=0;labelBackgroundColor=#FFFFFF;fillStyle=auto;fontSize=7;fontColor=#000000;" parent="1" vertex="1">
                    <mxGeometry x="146.43" y="139" width="67.13" height="20" as="geometry"/>
                </mxCell>
                <mxCell id="39" value="Share Operation" style="text;html=1;strokeColor=none;fillColor=none;align=center;verticalAlign=middle;whiteSpace=wrap;rounded=0;labelBackgroundColor=#FFFFFF;fillStyle=auto;fontSize=7;fontColor=#000000;" parent="1" vertex="1">
                    <mxGeometry x="149.6" y="189" width="60.81" height="14" as="geometry"/>
                </mxCell>
                <mxCell id="40" value="Delete Operation" style="text;html=1;strokeColor=none;fillColor=none;align=center;verticalAlign=middle;whiteSpace=wrap;rounded=0;labelBackgroundColor=#FFFFFF;fillStyle=auto;fontSize=7;fontColor=#000000;" parent="1" vertex="1">
                    <mxGeometry x="146.43" y="219" width="67.13" height="20" as="geometry"/>
                </mxCell>
                <mxCell id="41" value="Cloud Database" style="text;html=1;strokeColor=none;fillColor=none;align=center;verticalAlign=middle;whiteSpace=wrap;rounded=0;labelBackgroundColor=#FFFFFF;fillStyle=auto;fontSize=7;fontColor=#000000;" parent="1" vertex="1">
                    <mxGeometry x="370.69" y="148" width="67.13" height="20" as="geometry"/>
                </mxCell>
                <mxCell id="43" value="&lt;font style=&quot;font-size: 5px;&quot;&gt;Encryption/Decryption &lt;br&gt;of file&lt;br&gt;&lt;/font&gt;" style="text;html=1;strokeColor=none;fillColor=none;align=center;verticalAlign=middle;whiteSpace=wrap;rounded=0;labelBackgroundColor=#FFFFFF;fillStyle=auto;fontSize=7;fontColor=#000000;" parent="1" vertex="1">
                    <mxGeometry x="193.88" y="83" width="90" height="18" as="geometry"/>
                </mxCell>
                <mxCell id="46" value="" style="sketch=0;pointerEvents=1;shadow=0;dashed=0;html=1;strokeColor=#56517e;fillColor=#d0cee2;labelPosition=center;verticalLabelPosition=bottom;verticalAlign=top;outlineConnect=0;align=center;shape=mxgraph.office.security.secure_messaging;labelBackgroundColor=#FFFFFF;fillStyle=auto;fontSize=6;" parent="1" vertex="1">
                    <mxGeometry x="126.63" y="28" width="21.5" height="24" as="geometry"/>
                </mxCell>
                <mxCell id="48" value="" style="endArrow=none;startArrow=none;html=1;dashed=1;strokeColor=#808080;strokeWidth=1;fontSize=6;fontColor=#000000;exitX=0.5;exitY=0;exitDx=0;exitDy=0;exitPerimeter=0;startFill=0;endFill=0;" parent="1" source="52" target="46" edge="1">
                    <mxGeometry width="50" height="50" relative="1" as="geometry">
                        <mxPoint x="26.75" y="108" as="sourcePoint"/>
                        <mxPoint x="76.75" y="58" as="targetPoint"/>
                        <Array as="points">
                            <mxPoint x="-57.25" y="40"/>
                        </Array>
                    </mxGeometry>
                </mxCell>
                <mxCell id="49" value="" style="endArrow=classicThin;html=1;dashed=1;strokeColor=#808080;strokeWidth=1;fontSize=6;fontColor=#000000;entryX=0.337;entryY=-0.004;entryDx=0;entryDy=0;entryPerimeter=0;endFill=1;" parent="1" source="46" target="8" edge="1">
                    <mxGeometry width="50" height="50" relative="1" as="geometry">
                        <mxPoint x="186.75" y="92" as="sourcePoint"/>
                        <mxPoint x="236.75" y="42" as="targetPoint"/>
                        <Array as="points">
                            <mxPoint x="396.75" y="40"/>
                        </Array>
                    </mxGeometry>
                </mxCell>
                <mxCell id="50" value="Hashing Module" style="text;html=1;strokeColor=none;fillColor=none;align=center;verticalAlign=middle;whiteSpace=wrap;rounded=0;labelBackgroundColor=#FFFFFF;fillStyle=auto;fontSize=7;fontColor=#000000;" parent="1" vertex="1">
                    <mxGeometry x="107" y="47" width="64" height="20" as="geometry"/>
                </mxCell>
                <mxCell id="51" value="&lt;font style=&quot;font-size: 5px;&quot;&gt;Storing User Credentials on Cloud&lt;/font&gt;" style="text;html=1;strokeColor=none;fillColor=none;align=center;verticalAlign=middle;whiteSpace=wrap;rounded=0;labelBackgroundColor=#FFFFFF;fillStyle=auto;fontSize=7;fontColor=#000000;" parent="1" vertex="1">
                    <mxGeometry x="204.63" y="30.39" width="79.25" height="19.22" as="geometry"/>
                </mxCell>
                <mxCell id="52" value="" style="html=1;strokeColor=#3A5431;fillColor=#6d8764;labelPosition=center;verticalLabelPosition=middle;verticalAlign=top;align=center;fontSize=12;outlineConnect=0;spacingTop=-6;fontColor=#ffffff;sketch=0;shape=mxgraph.sitemap.login;" parent="1" vertex="1">
                    <mxGeometry x="-80.25" y="113" width="46" height="40" as="geometry"/>
                </mxCell>
                <mxCell id="54" value="User Registration" style="text;html=1;strokeColor=none;fillColor=none;align=center;verticalAlign=middle;whiteSpace=wrap;rounded=0;labelBackgroundColor=#FFFFFF;fillStyle=auto;fontSize=7;fontColor=#000000;" parent="1" vertex="1">
                    <mxGeometry x="-88" y="149" width="61.5" height="20" as="geometry"/>
                </mxCell>
                <mxCell id="59" value="&lt;font style=&quot;font-size: 5px;&quot;&gt;Request to Delete File&lt;/font&gt;" style="text;html=1;strokeColor=none;fillColor=none;align=center;verticalAlign=middle;whiteSpace=wrap;rounded=0;labelBackgroundColor=#FFFFFF;fillStyle=auto;fontSize=7;fontColor=#000000;" parent="1" vertex="1">
                    <mxGeometry x="221.75" y="206" width="124.87" height="20" as="geometry"/>
                </mxCell>
                <mxCell id="61" value="&lt;p style=&quot;line-height: 90%;&quot;&gt;&lt;font style=&quot;font-size: 5px;&quot;&gt;SMTP Protocol&lt;br&gt;(SendGrid)&lt;br&gt;&lt;/font&gt;&lt;/p&gt;" style="text;html=1;strokeColor=none;fillColor=none;align=center;verticalAlign=middle;whiteSpace=wrap;rounded=0;labelBackgroundColor=#FFFFFF;fillStyle=auto;fontSize=7;fontColor=#000000;" parent="1" vertex="1">
                    <mxGeometry x="221.75" y="192" width="41" height="14" as="geometry"/>
                </mxCell>
                <mxCell id="78" value="&lt;font style=&quot;font-size: 5px;&quot;&gt;Validating email ID&amp;nbsp;&lt;/font&gt;" style="text;html=1;strokeColor=none;fillColor=none;align=center;verticalAlign=middle;whiteSpace=wrap;rounded=0;labelBackgroundColor=#FFFFFF;fillStyle=auto;fontSize=7;fontColor=#000000;rotation=0;" parent="1" vertex="1">
                    <mxGeometry x="-73.25" y="25" width="73" height="18" as="geometry"/>
                </mxCell>
                <mxCell id="84" value="Sending Data" style="text;html=1;align=center;verticalAlign=middle;resizable=0;points=[];autosize=1;strokeColor=none;fillColor=none;fontSize=5;fontColor=#4D4D4D;" parent="1" vertex="1">
                    <mxGeometry x="318.25" y="116" width="48" height="18" as="geometry"/>
                </mxCell>
                <mxCell id="85" value="Requesting Data" style="text;html=1;align=center;verticalAlign=middle;resizable=0;points=[];autosize=1;strokeColor=none;fillColor=none;fontSize=5;fontColor=#4D4D4D;" parent="1" vertex="1">
                    <mxGeometry x="314.75" y="129" width="55" height="18" as="geometry"/>
                </mxCell>
                <mxCell id="87" value="" style="endArrow=none;html=1;dashed=1;strokeColor=#808080;strokeWidth=1;fontSize=5;fontColor=#4D4D4D;targetPerimeterSpacing=0;exitX=0.5;exitY=0;exitDx=0;exitDy=0;exitPerimeter=0;startArrow=classicThin;startFill=1;" parent="1" source="5" edge="1">
                    <mxGeometry width="50" height="50" relative="1" as="geometry">
                        <mxPoint x="27.75" y="111" as="sourcePoint"/>
                        <mxPoint x="395.75" y="65" as="targetPoint"/>
                        <Array as="points">
                            <mxPoint x="22.75" y="65"/>
                        </Array>
                    </mxGeometry>
                </mxCell>
                <mxCell id="89" value="&lt;span style=&quot;font-size: 5px;&quot;&gt;Fetching Valid User Credentials&lt;/span&gt;" style="text;html=1;strokeColor=none;fillColor=none;align=center;verticalAlign=middle;whiteSpace=wrap;rounded=0;labelBackgroundColor=#FFFFFF;fillStyle=auto;fontSize=7;fontColor=#000000;" parent="1" vertex="1">
                    <mxGeometry x="269.75" y="57.5" width="74" height="13" as="geometry"/>
                </mxCell>
                <mxCell id="90" value="" style="points=[];aspect=fixed;html=1;align=center;shadow=0;dashed=0;image;image=img/lib/allied_telesis/computer_and_terminals/IP_TV.svg;" parent="1" vertex="1">
                    <mxGeometry x="15.75" y="28" width="20.87" height="21.38" as="geometry"/>
                </mxCell>
                <mxCell id="93" value="&lt;font style=&quot;font-size: 5px;&quot;&gt;Fetching IP address From User's Machine&lt;/font&gt;" style="text;html=1;strokeColor=none;fillColor=none;align=center;verticalAlign=middle;whiteSpace=wrap;rounded=0;labelBackgroundColor=#FFFFFF;fillStyle=auto;fontSize=7;fontColor=#000000;" parent="1" vertex="1">
                    <mxGeometry x="-17.25" y="43" width="98" height="19.22" as="geometry"/>
                </mxCell>
                <mxCell id="94" value="" style="verticalLabelPosition=bottom;sketch=0;aspect=fixed;html=1;verticalAlign=top;strokeColor=none;align=center;outlineConnect=0;shape=mxgraph.citrix.smtp_server;fontSize=4;" parent="1" vertex="1">
                    <mxGeometry x="-69.75" y="62.42" width="25" height="30.26" as="geometry"/>
                </mxCell>
                <mxCell id="95" value="" style="verticalLabelPosition=bottom;sketch=0;aspect=fixed;html=1;verticalAlign=top;strokeColor=none;align=center;outlineConnect=0;shape=mxgraph.citrix.smtp_server;fontSize=4;" parent="1" vertex="1">
                    <mxGeometry x="229.75" y="161.74" width="25" height="30.26" as="geometry"/>
                </mxCell>
                <mxCell id="96" value="&lt;font style=&quot;font-size: 5px;&quot;&gt;SMTP Protocol (SendGrid)&lt;/font&gt;" style="text;html=1;strokeColor=none;fillColor=none;align=center;verticalAlign=middle;whiteSpace=wrap;rounded=0;labelBackgroundColor=#FFFFFF;fillStyle=auto;fontSize=7;fontColor=#000000;" parent="1" vertex="1">
                    <mxGeometry x="-83.37" y="96" width="52.25" height="10" as="geometry"/>
                </mxCell>
                <mxCell id="101" value="&lt;font style=&quot;font-size: 5px;&quot;&gt;Mail Sent&lt;/font&gt;" style="text;html=1;strokeColor=none;fillColor=none;align=center;verticalAlign=middle;whiteSpace=wrap;rounded=0;labelBackgroundColor=#FFFFFF;fillStyle=auto;fontSize=7;fontColor=#000000;" parent="1" vertex="1">
                    <mxGeometry x="343.75" y="187" width="41" height="14" as="geometry"/>
                </mxCell>
                <mxCell id="102" value="" style="sketch=0;pointerEvents=1;shadow=0;dashed=0;html=1;strokeColor=none;fillColor=#505050;labelPosition=center;verticalLabelPosition=bottom;verticalAlign=top;outlineConnect=0;align=center;shape=mxgraph.office.users.mail_user;fontSize=4;" parent="1" vertex="1">
                    <mxGeometry x="354.75" y="168" width="19" height="23" as="geometry"/>
                </mxCell>
                <mxCell id="106" value="&lt;span style=&quot;background-color: rgb(255, 255, 255);&quot;&gt;&lt;font color=&quot;#000000&quot;&gt;User Mail ID fetched&lt;/font&gt;&lt;/span&gt;" style="text;html=1;align=center;verticalAlign=middle;resizable=0;points=[];autosize=1;strokeColor=none;fillColor=none;fontSize=4;" parent="1" vertex="1">
                    <mxGeometry x="106" y="174.5" width="54" height="17" as="geometry"/>
                </mxCell>
                <mxCell id="107" value="&lt;p style=&quot;line-height: 200%;&quot;&gt;&lt;span style=&quot;color: rgb(0, 0, 0); font-family: Helvetica; font-size: 4px; font-style: normal; font-variant-ligatures: normal; font-variant-caps: normal; font-weight: 400; letter-spacing: normal; orphans: 2; text-align: center; text-indent: 0px; text-transform: none; widows: 2; word-spacing: 0px; -webkit-text-stroke-width: 0px; background-color: rgb(255, 255, 255); text-decoration-thickness: initial; text-decoration-style: initial; text-decoration-color: initial; float: none; display: inline !important;&quot;&gt;Input Receiver&lt;/span&gt;&lt;br style=&quot;border-color: rgb(0, 0, 0); color: rgb(0, 0, 0); font-family: Helvetica; font-size: 4px; font-style: normal; font-variant-ligatures: normal; font-variant-caps: normal; font-weight: 400; letter-spacing: normal; orphans: 2; text-align: center; text-indent: 0px; text-transform: none; widows: 2; word-spacing: 0px; -webkit-text-stroke-width: 0px; background-color: rgb(255, 255, 255); text-decoration-thickness: initial; text-decoration-style: initial; text-decoration-color: initial;&quot;&gt;&lt;span style=&quot;color: rgb(0, 0, 0); font-family: Helvetica; font-size: 4px; font-style: normal; font-variant-ligatures: normal; font-variant-caps: normal; font-weight: 400; letter-spacing: normal; orphans: 2; text-align: center; text-indent: 0px; text-transform: none; widows: 2; word-spacing: 0px; -webkit-text-stroke-width: 0px; background-color: rgb(255, 255, 255); text-decoration-thickness: initial; text-decoration-style: initial; text-decoration-color: initial; float: none; display: inline !important;&quot;&gt;&amp;nbsp; &amp;nbsp; &amp;nbsp; Mail ID&amp;nbsp;&lt;/span&gt;&lt;/p&gt;" style="text;whiteSpace=wrap;html=1;fontSize=4;fontColor=#000000;" parent="1" vertex="1">
                    <mxGeometry x="193.88" y="159" width="31.87" height="17" as="geometry"/>
                </mxCell>
                <mxCell id="110" value="Link Generates" style="text;html=1;align=center;verticalAlign=middle;resizable=0;points=[];autosize=1;strokeColor=none;fillColor=none;fontSize=4;fontColor=#000000;rotation=45;" parent="1" vertex="1">
                    <mxGeometry x="302.75" y="153.5" width="45" height="17" as="geometry"/>
                </mxCell>
                <mxCell id="112" value="" style="endArrow=none;html=1;strokeColor=#808080;fontSize=5;fontColor=#000000;exitX=0.482;exitY=0.012;exitDx=0;exitDy=0;exitPerimeter=0;" parent="1" source="6" edge="1">
                    <mxGeometry width="50" height="50" relative="1" as="geometry">
                        <mxPoint x="47.75" y="242" as="sourcePoint"/>
                        <mxPoint x="395.75" y="74" as="targetPoint"/>
                        <Array as="points">
                            <mxPoint x="103.75" y="74"/>
                        </Array>
                    </mxGeometry>
                </mxCell>
                <mxCell id="113" value="&lt;span style=&quot;font-size: 5px;&quot;&gt;Fetching User File Details&lt;/span&gt;" style="text;html=1;strokeColor=none;fillColor=none;align=center;verticalAlign=middle;whiteSpace=wrap;rounded=0;labelBackgroundColor=#FFFFFF;fillStyle=auto;fontSize=7;fontColor=#000000;" parent="1" vertex="1">
                    <mxGeometry x="302.75" y="67" width="85.75" height="13" as="geometry"/>
                </mxCell>
                <mxCell id="115" value="" style="endArrow=none;html=1;strokeColor=#808080;fontSize=5;fontColor=#000000;" parent="1" edge="1">
                    <mxGeometry width="50" height="50" relative="1" as="geometry">
                        <mxPoint x="396.75" y="96" as="sourcePoint"/>
                        <mxPoint x="396.75" y="75" as="targetPoint"/>
                    </mxGeometry>
                </mxCell>
            </root>
        </mxGraphModel>
    </diagram>
</mxfile>